<svg id="Calque_1" data-name="Calque 1" xmlns="http://www.w3.org/2000/svg" viewBox="0 0 500 500"><defs><style>.cls-1{fill:#fffdf1;}</style></defs><path class="cls-1" d="M250,15.16,484.84,250,250,484.84,15.16,250,250,15.16M250,0a15.11,15.11,0,0,0-10.72,4.44L4.44,239.28a15.16,15.16,0,0,0,0,21.44L239.28,495.56a15.16,15.16,0,0,0,21.44,0L495.56,260.72a15.16,15.16,0,0,0,0-21.44L260.72,4.44A15.11,15.11,0,0,0,250,0Z"/><path class="cls-1" d="M250,67.59,432.41,250,250,432.41,67.59,250,250,67.59m0-14.74a14.69,14.69,0,0,0-10.42,4.32L57.17,239.58a14.73,14.73,0,0,0,0,20.84L239.58,442.83a14.73,14.73,0,0,0,20.84,0L442.83,260.42a14.73,14.73,0,0,0,0-20.84L260.42,57.17A14.67,14.67,0,0,0,250,52.85Z"/><path class="cls-1" d="M300.13,211.13a8.73,8.73,0,0,0,6.12-2.53l6.22-6.22a8.75,8.75,0,0,0-11.39-13.29,7.84,7.84,0,0,0-.95,1l-5.78,6.21a8.71,8.71,0,0,0,5.78,14.87ZM250.6,190.66a8.75,8.75,0,0,0,8.75-8.75v-8.75a8.75,8.75,0,0,0-17.5,0v8.75A8.75,8.75,0,0,0,250.6,190.66Zm-70,52.5h-8.75a8.75,8.75,0,1,0,0,17.5h8.75a8.75,8.75,0,0,0,0-17.5ZM195,208.6a8.73,8.73,0,1,0,12.34-12.34l-6.21-6.21a8.75,8.75,0,0,0-12.34,12.33Zm134.4,34.56H320.6a8.75,8.75,0,1,0,0,17.5h8.75a8.75,8.75,0,0,0,0-17.5Zm-87.5,61.25H215.6a8.75,8.75,0,1,0,0,17.5h26.25a8.75,8.75,0,0,0,0-17.5Zm61.25-35h-7.7a47.24,47.24,0,0,0,3.33-17.5,48.13,48.13,0,1,0-96.25,0,47.43,47.43,0,0,0,3.32,17.5h-7.7a8.75,8.75,0,1,0,0,17.5h105a8.75,8.75,0,0,0,0-17.5Zm-27.56,0H225.67a30.07,30.07,0,0,1-5.69-17.5,30.63,30.63,0,1,1,61.25,0A30.07,30.07,0,0,1,275.54,269.41Zm10.06,35h-8.75a8.75,8.75,0,0,0,0,17.5h8.75a8.75,8.75,0,0,0,0-17.5Z"/></svg>