<svg id="Calque_1" data-name="Calque 1" xmlns="http://www.w3.org/2000/svg" viewBox="0 0 500 500"><defs><style>.cls-1{fill:#fffdf1;}</style></defs><path class="cls-1" d="M250,15.16,484.84,250,250,484.84,15.16,250,250,15.16M250,0a15.11,15.11,0,0,0-10.72,4.44L4.44,239.28a15.16,15.16,0,0,0,0,21.44L239.28,495.56a15.16,15.16,0,0,0,21.44,0L495.56,260.72a15.16,15.16,0,0,0,0-21.44L260.72,4.44A15.11,15.11,0,0,0,250,0Z"/><path class="cls-1" d="M250,67.59,432.41,250,250,432.41,67.59,250,250,67.59m0-14.74a14.69,14.69,0,0,0-10.42,4.32L57.17,239.58a14.73,14.73,0,0,0,0,20.84L239.58,442.83a14.73,14.73,0,0,0,20.84,0L442.83,260.42a14.73,14.73,0,0,0,0-20.84L260.42,57.17A14.67,14.67,0,0,0,250,52.85Z"/><path class="cls-1" d="M248,302.66H208.2a6.62,6.62,0,0,1-6.63-6.62V203.26a6.63,6.63,0,0,1,6.63-6.63h33.14v19.88a19.88,19.88,0,0,0,19.88,19.88H281.1v33.14a6.63,6.63,0,1,0,13.25,0V229.37a8.43,8.43,0,0,0-.4-1.79V227a7,7,0,0,0-1.25-1.85h0l-39.77-39.76h0a6.89,6.89,0,0,0-1.85-1.26,1.83,1.83,0,0,0-.66,0,7.24,7.24,0,0,0-2.06-.73H208.2a19.88,19.88,0,0,0-19.88,19.88V296a19.88,19.88,0,0,0,19.88,19.88H248a6.63,6.63,0,0,0,0-13.26ZM254.59,206l17.16,17.16H261.22a6.63,6.63,0,0,1-6.63-6.63ZM221.46,262.9h39.76a6.63,6.63,0,0,0,0-13.25H221.46a6.63,6.63,0,1,0,0,13.25ZM248,276.16h-26.5a6.63,6.63,0,1,0,0,13.25H248a6.63,6.63,0,1,0,0-13.25Zm-26.5-39.77h6.62a6.63,6.63,0,1,0,0-13.25h-6.62a6.63,6.63,0,1,0,0,13.25Zm90.85,41.69a6.62,6.62,0,0,0-9.37,0l0,0L281.1,300l-8.55-8.62a6.65,6.65,0,0,0-9.41,9.41L276.39,314a6.64,6.64,0,0,0,9.38,0l0,0,26.51-26.51a6.62,6.62,0,0,0,0-9.37Z"/></svg>