<svg id="Calque_1" data-name="Calque 1" xmlns="http://www.w3.org/2000/svg" viewBox="0 0 500 500"><defs><style>.cls-1{fill:#fffdf1;}</style></defs><path class="cls-1" d="M250,15.16,484.84,250,250,484.84,15.16,250,250,15.16M250,0a15.11,15.11,0,0,0-10.72,4.44L4.44,239.28a15.16,15.16,0,0,0,0,21.44L239.28,495.56a15.16,15.16,0,0,0,21.44,0L495.56,260.72a15.16,15.16,0,0,0,0-21.44L260.72,4.44A15.11,15.11,0,0,0,250,0Z"/><path class="cls-1" d="M250,67.59,432.41,250,250,432.41,67.59,250,250,67.59m0-14.74a14.69,14.69,0,0,0-10.42,4.32L57.17,239.58a14.73,14.73,0,0,0,0,20.84L239.58,442.83a14.73,14.73,0,0,0,20.84,0L442.83,260.42a14.73,14.73,0,0,0,0-20.84L260.42,57.17A14.67,14.67,0,0,0,250,52.85Z"/><path class="cls-1" d="M296.67,253.54l-42.84,41.11a5.42,5.42,0,0,1-7.42,0s0,0,0,0l-42.84-41.31a27.57,27.57,0,0,1,0-39.72,30.35,30.35,0,0,1,41.38,0,7.09,7.09,0,0,0,9.76,0l0,0a30.38,30.38,0,0,1,41.4,0,27.6,27.6,0,0,1,.55,39.72Zm9.72-49.38a44.76,44.76,0,0,0-56.29-4.23c-19.16-13.68-46.26-9.86-60.52,8.53a40.28,40.28,0,0,0,4.23,54.22l42.84,41.17a19.77,19.77,0,0,0,26.9,0l42.84-41.17a40.32,40.32,0,0,0,0-58.52"/></svg>