<svg id="Calque_1" data-name="Calque 1" xmlns="http://www.w3.org/2000/svg" viewBox="0 0 500 500"><defs><style>.cls-1{fill:#fffdf1;}</style></defs><path class="cls-1" d="M250,15.16,484.84,250,250,484.84,15.16,250,250,15.16M250,0a15.11,15.11,0,0,0-10.72,4.44L4.44,239.28a15.16,15.16,0,0,0,0,21.44L239.28,495.56a15.16,15.16,0,0,0,21.44,0L495.56,260.72a15.16,15.16,0,0,0,0-21.44L260.72,4.44A15.11,15.11,0,0,0,250,0Z"/><path class="cls-1" d="M250,67.59,432.41,250,250,432.41,67.59,250,250,67.59m0-14.74a14.69,14.69,0,0,0-10.42,4.32L57.17,239.58a14.73,14.73,0,0,0,0,20.84L239.58,442.83a14.73,14.73,0,0,0,20.84,0L442.83,260.42a14.73,14.73,0,0,0,0-20.84L260.42,57.17A14.67,14.67,0,0,0,250,52.85Z"/><path class="cls-1" d="M254.57,255l-16,7,7-16,16-7Zm17.49-35.81L237,234.05a7.05,7.05,0,0,0-3.66,3.65l-14.89,35.11a7.08,7.08,0,0,0,6.4,9.84,6.59,6.59,0,0,0,2.8-.63l35.11-14.9a7,7,0,0,0,3.66-3.65l14.88-35.1a7,7,0,0,0-9.2-9.2M257,306.1v-6.53a7,7,0,0,0-14.05,0v6.53a56.17,56.17,0,0,1-48.66-48.66h6.53a7,7,0,0,0,0-14.05h-6.53A56.17,56.17,0,0,1,243,194.73v6.53a7,7,0,0,0,14.05,0v-6.53a56.17,56.17,0,0,1,48.66,48.66h-6.53a7,7,0,1,0,0,14.05h6.53A56.17,56.17,0,0,1,257,306.1m-7-125.91a70.23,70.23,0,1,0,70.23,70.22A70.22,70.22,0,0,0,250,180.19"/></svg>