<svg xmlns="http://www.w3.org/2000/svg" xmlns:xlink="http://www.w3.org/1999/xlink" width="135.777" height="97.756" viewBox="0 0 135.777 97.756">
  <defs>
    <clipPath id="clip-path">
      <rect id="Rectangle_9" data-name="Rectangle 9" width="135.777" height="97.756" fill="none"/>
    </clipPath>
  </defs>
  <g id="logo" transform="translate(-42.34)">
    <g id="Groupe_1" data-name="Groupe 1" transform="translate(42.34)" clip-path="url(#clip-path)">
      <path id="Tracé_1" data-name="Tracé 1" d="M305.565,374.185a1.2,1.2,0,0,0-.661-1.011h0a1.082,1.082,0,0,0-.248-.091s0,0,0,0a1.935,1.935,0,0,0-.252-.031.035.035,0,0,0-.026,0,2.765,2.765,0,0,0-.3-.015,2.02,2.02,0,0,0-.343.026,3.6,3.6,0,0,0-2.682,1.626,6.4,6.4,0,0,0-4.289-1.605,5.865,5.865,0,0,0-6.113,5.579,5.315,5.315,0,0,0,1.7,3.856,3.984,3.984,0,0,0-1.133,1,2.659,2.659,0,0,0-.662,2.472,3.009,3.009,0,0,0,1.97,1.648,3.56,3.56,0,0,0-1.1,1.138,3.136,3.136,0,0,0-.355,2.3c.437,1.663,2.679,2.262,3.391,2.453,3,.8,7.609-.026,8.426-2.8a4.407,4.407,0,0,0-1.517-4.482c-2.883-2.177-8-.061-8.621-1.446a1.706,1.706,0,0,1,.424-1.621,6.117,6.117,0,0,0,.824.46,6.541,6.541,0,0,0,2.761.6,6.429,6.429,0,0,0,4.094-1.435,5.581,5.581,0,0,0,.885-.909,5.175,5.175,0,0,0,.046-6.414,2.52,2.52,0,0,1,.989-.312,1.261,1.261,0,0,1,.241-.017,2.5,2.5,0,0,1,.726.106h0a.909.909,0,0,0,.183.1,1.117,1.117,0,0,0,.211.061s0,0,0,0a1.17,1.17,0,0,0,.231.022,1.191,1.191,0,0,0,1.137-.822,1.159,1.159,0,0,0,.061-.372.578.578,0,0,0,0-.061m-11.838,14.909a3.474,3.474,0,0,1,1.09-1.051,5.021,5.021,0,0,1,1.968-.7c2.125-.3,4.049.673,4.3,2.174s-1.272,2.964-3.4,3.265a5.077,5.077,0,0,1-2.312-.188,3.617,3.617,0,0,1-1.056-.545,2.289,2.289,0,0,1-.931-1.44,2.147,2.147,0,0,1,.339-1.514m5.695-8.234a4.745,4.745,0,0,1-.4,1.325,2.127,2.127,0,0,1-1.282,1.226,1.8,1.8,0,0,1-1.512-.325,4.234,4.234,0,0,1-1.155-1.272,7.524,7.524,0,0,1-.926-2.367c-.557-2.583.147-5,1.573-5.392s3.036,1.381,3.594,3.964a7.78,7.78,0,0,1,.107,2.841" transform="translate(-230.51 -296.061)" fill="#fffdef"/>
      <path id="Tracé_2" data-name="Tracé 2" d="M142.944,384.095a.208.208,0,0,0-.265.081,4.119,4.119,0,0,1-3.442,2.065c-2.388,0-4.326-2.348-4.326-5.243a5.271,5.271,0,0,1,2.915-4.958,1.77,1.77,0,0,1,2.365,1.041l.005.017a1.267,1.267,0,0,1,.076.242,2.613,2.613,0,0,1,.06.769.007.007,0,0,0,0,0,.932.932,0,0,0-.056.209,1.131,1.131,0,0,0-.013.23s0,0,0,.006a1.094,1.094,0,0,0,.031.24,1.256,1.256,0,0,0,1.5.948.5.5,0,0,0,.062-.017,1.253,1.253,0,0,0,.88-.911v-.006a1.2,1.2,0,0,0,.035-.274s0,0,0,0a1.95,1.95,0,0,0-.029-.265.025.025,0,0,0,0-.027,2.809,2.809,0,0,0-.054-.311,1.525,1.525,0,0,0-.043-.161,1.426,1.426,0,0,0-.05-.149.366.366,0,0,0-.014-.036,3.717,3.717,0,0,0-.648-1.191,3.821,3.821,0,0,0-.572-.571s0,0,0,0a5.882,5.882,0,0,0-2.332-1.224l-.043-.012a4.895,4.895,0,0,0-1.184-.2l-.06,0c-.021,0-.041,0-.06,0l-.068,0c-.141,0-.222,0-.222,0-3.249.1-5.858,3.241-5.858,7.1,0,3.926,2.694,7.107,6.017,7.107a6.072,6.072,0,0,0,5.5-4.234.208.208,0,0,0-.108-.261" transform="translate(-104.391 -297.128)" fill="#fffdef"/>
      <path id="Tracé_3" data-name="Tracé 3" d="M109.191,375.75a1.2,1.2,0,0,0-.661-1.011h0a1.088,1.088,0,0,0-.248-.091s0,0,0,0a1.971,1.971,0,0,0-.252-.03.037.037,0,0,0-.026,0,2.8,2.8,0,0,0-.3-.015,2,2,0,0,0-.344.026,3.606,3.606,0,0,0-3.266,3.59,3.05,3.05,0,0,0,.02.378q.01.1.026.2a2.548,2.548,0,0,1,2.264-2.053,1.257,1.257,0,0,1,.241-.017,2.489,2.489,0,0,1,.726.107h0a.9.9,0,0,0,.183.1,1.128,1.128,0,0,0,.211.061s0,0,0,0A1.178,1.178,0,0,0,108,377a1.2,1.2,0,0,0,1.2-1.194.483.483,0,0,0,0-.061" transform="translate(-82.609 -297.303)" fill="#fffdef"/>
      <path id="Tracé_4" data-name="Tracé 4" d="M81.331,374.66H79.744l1.568.711v12.481l-1.587.719h1.587v-.014h3.44v.014h1.587l-1.587-.719V374.66Z" transform="translate(-63.275 -297.352)" fill="#fffdef"/>
      <path id="Tracé_5" data-name="Tracé 5" d="M565.515,375.77a1.2,1.2,0,0,0-.661-1.011h0a1.083,1.083,0,0,0-.248-.091s0,0,0,0a2,2,0,0,0-.252-.03.037.037,0,0,0-.026,0,2.82,2.82,0,0,0-.3-.015,2,2,0,0,0-.344.026,3.606,3.606,0,0,0-3.266,3.59,3.068,3.068,0,0,0,.02.378q.01.1.026.2a2.548,2.548,0,0,1,2.263-2.053,1.26,1.26,0,0,1,.241-.017,2.488,2.488,0,0,1,.727.106h0a.912.912,0,0,0,.183.1,1.122,1.122,0,0,0,.211.061s0,0,0,0a1.176,1.176,0,0,0,.23.022,1.191,1.191,0,0,0,1.137-.822,1.17,1.17,0,0,0,.061-.372.49.49,0,0,0,0-.061" transform="translate(-444.774 -297.319)" fill="#fffdef"/>
      <path id="Tracé_6" data-name="Tracé 6" d="M537.654,374.68h-1.587l1.568.711v12.481l-1.587.72h1.587v-.014h3.44v.014h1.587l-1.587-.72V374.68Z" transform="translate(-425.44 -297.368)" fill="#fffdef"/>
      <path id="Tracé_7" data-name="Tracé 7" d="M463.837,386.087V374.052l-2.506,1.119-.339.153-.547.243-.044.02v.056c-.025-.022-.049-.046-.075-.067,0,0,0,0,0,0a5.935,5.935,0,0,0-2.355-1.236l-.043-.012a4.947,4.947,0,0,0-1.2-.2l-.06,0c-.021,0-.041,0-.06,0l-.069,0c-.142,0-.224,0-.224,0-3.28.1-5.914,3.272-5.914,7.172,0,3.964,2.72,7.176,6.074,7.176a5.532,5.532,0,0,0,3.925-1.7v1.568l1.384-.619,3.636-1.625Zm-5.655.009c-2.412,0-4.368-2.37-4.368-5.293a5.3,5.3,0,0,1,2.943-5.006A3.314,3.314,0,0,1,460.4,377v2.42l-.034.139h.034v5.79a3.786,3.786,0,0,1-2.219.743" transform="translate(-357.465 -296.87)" fill="#fffdef"/>
      <path id="Tracé_8" data-name="Tracé 8" d="M214.54,386.087V374.052l-2.506,1.119-.339.153-.547.243-.044.02v.056c-.025-.022-.049-.046-.075-.067,0,0,0,0,0,0a5.933,5.933,0,0,0-2.355-1.236l-.043-.012a4.947,4.947,0,0,0-1.195-.2l-.061,0c-.021,0-.041,0-.061,0l-.068,0c-.143,0-.225,0-.225,0-3.28.1-5.915,3.272-5.915,7.172,0,3.964,2.72,7.176,6.075,7.176a5.532,5.532,0,0,0,3.925-1.7v1.568l1.384-.619,3.636-1.625Zm-5.656.009c-2.412,0-4.368-2.37-4.368-5.293a5.3,5.3,0,0,1,2.943-5.006A3.314,3.314,0,0,1,211.1,377v2.42l-.034.139h.034v5.79a3.786,3.786,0,0,1-2.219.743" transform="translate(-159.607 -296.87)" fill="#fffdef"/>
      <path id="Tracé_9" data-name="Tracé 9" d="M606.349,374.68l-3.491,7.581-3.785-7.581h-5.154l1.56.707,5.568,10.876L598.5,391.9a1.279,1.279,0,0,1-1.028.759h-.009a1.309,1.309,0,0,1-.241.019,2.476,2.476,0,0,1-.726-.107h0a.969.969,0,0,0-.182-.1,1.178,1.178,0,0,0-.212-.061l0,0a1.08,1.08,0,0,0-.23-.022,1.189,1.189,0,0,0-1.137.822,1.138,1.138,0,0,0-.061.372c0,.02,0,.04,0,.061a1.193,1.193,0,0,0,.661,1.01h0a1.039,1.039,0,0,0,.247.092l.005,0a2.316,2.316,0,0,0,.253.031.038.038,0,0,0,.026,0,2.691,2.691,0,0,0,.3.015,1.906,1.906,0,0,0,.343-.026,2.968,2.968,0,0,0,2.5-2.186l0,0,2.245-4.983,1.554-3.446.245-.546,4.092-8.93Z" transform="translate(-471.369 -297.368)" fill="#fffdef"/>
      <path id="Tracé_10" data-name="Tracé 10" d="M41.487,386.286H39.9V374.566H36.467v0H34.951l1.517.688v13.271Z" transform="translate(-27.739 -297.278)" fill="#fffdef"/>
      <path id="Tracé_11" data-name="Tracé 11" d="M7.456,387.585l-.03,0a2.9,2.9,0,0,1-2.4-2.878V374.577l-3.444,0H0l1.586.719v9.886a3.536,3.536,0,0,0,2.381,3.352.064.064,0,0,0,.026.009,3.754,3.754,0,0,0,4.089-.916.337.337,0,0,1-.043,0,3.6,3.6,0,0,1-.584-.046" transform="translate(0 -297.287)" fill="#fffdef"/>
      <path id="Tracé_12" data-name="Tracé 12" d="M411.723,386.286h-1.583V374.566H406.7v0h-1.517l1.517.688v13.271Z" transform="translate(-321.58 -297.278)" fill="#fffdef"/>
      <path id="Tracé_13" data-name="Tracé 13" d="M377.689,387.585l-.03,0a2.9,2.9,0,0,1-2.4-2.878V374.577l-3.444,0v0h-1.587l1.587.719v9.888a3.536,3.536,0,0,0,2.381,3.352.062.062,0,0,0,.026.009,3.754,3.754,0,0,0,4.089-.916.337.337,0,0,1-.043,0,3.6,3.6,0,0,1-.584-.046" transform="translate(-293.839 -297.287)" fill="#fffdef"/>
      <path id="Tracé_14" data-name="Tracé 14" d="M193.26,2.146,226.518,35.4,193.26,68.661,160,35.4,193.26,2.146m0-2.146a2.139,2.139,0,0,0-1.517.629L158.486,33.886a2.146,2.146,0,0,0,0,3.035l33.257,33.257a2.146,2.146,0,0,0,3.035,0l33.257-33.257a2.146,2.146,0,0,0,0-3.035L194.778.629A2.139,2.139,0,0,0,193.26,0" transform="translate(-125.284 0)" fill="#fffdef"/>
      <path id="Tracé_15" data-name="Tracé 15" d="M309.075,76.616l3.207,3.207-3.207,3.207-3.207-3.207,3.207-3.207m0-2.088h0a2.087,2.087,0,0,0-1.476.612l-3.207,3.207a2.088,2.088,0,0,0,0,2.952l3.207,3.207a2.087,2.087,0,0,0,2.952,0l3.207-3.207a2.087,2.087,0,0,0,0-2.953l-3.207-3.207a2.086,2.086,0,0,0-1.476-.612" transform="translate(-241.099 -59.15)" fill="#fffdef"/>
      <rect id="Rectangle_1" data-name="Rectangle 1" width="2.24" height="2.24" transform="translate(66.392 20.674) rotate(-45)" fill="#a97144"/>
      <rect id="Rectangle_2" data-name="Rectangle 2" width="2.24" height="2.24" transform="matrix(0.707, -0.707, 0.707, 0.707, 52.94, 36.973)" fill="#a97144"/>
      <rect id="Rectangle_3" data-name="Rectangle 3" width="2.24" height="2.24" transform="matrix(0.707, -0.707, 0.707, 0.707, 79.82, 33.954)" fill="#a97144"/>
      <path id="Tracé_16" data-name="Tracé 16" d="M309.067,219.4l3.207,3.207-3.207,3.207L305.86,222.6l3.207-3.207m0-2.087h0a2.087,2.087,0,0,0-1.476.611l-3.207,3.207a2.087,2.087,0,0,0,0,2.952l3.207,3.207a2.087,2.087,0,0,0,2.952,0l3.207-3.207a2.088,2.088,0,0,0,0-2.953l-3.207-3.207a2.087,2.087,0,0,0-1.476-.611" transform="translate(-241.092 -172.47)" fill="#fffdef"/>
      <rect id="Rectangle_4" data-name="Rectangle 4" width="2.65" height="2.65" transform="matrix(0.707, -0.707, 0.707, 0.707, 66.102, 66.784)" fill="#a97144"/>
      <rect id="Rectangle_5" data-name="Rectangle 5" width="2.65" height="2.65" transform="matrix(0.707, -0.707, 0.707, 0.707, 34.719, 35.403)" fill="#a97144"/>
      <rect id="Rectangle_6" data-name="Rectangle 6" width="2.65" height="2.65" transform="translate(66.101 4.021) rotate(-45)" fill="#a97144"/>
      <rect id="Rectangle_7" data-name="Rectangle 7" width="2.65" height="2.65" transform="translate(97.484 35.404) rotate(-45)" fill="#a97144"/>
      <rect id="Rectangle_8" data-name="Rectangle 8" width="2.24" height="2.24" transform="translate(66.392 50.134) rotate(-45.004)" fill="#a97144"/>
      <path id="Tracé_17" data-name="Tracé 17" d="M249.356,62.713,223.524,36.882a2.087,2.087,0,0,0-2.952,0L194.74,62.713a2.087,2.087,0,0,0,0,2.952L220.571,91.5a2.087,2.087,0,0,0,2.952,0l25.832-25.832a2.087,2.087,0,0,0,0-2.952M222.048,38.358l24.759,24.759h-6.12a2.069,2.069,0,0,0-.549-1.977L237,58a2.088,2.088,0,0,0-2.95,0l-2.531,2.527h-22.94a2.087,2.087,0,0,0-1.476.612l-1.976,1.976h-7.835ZM208.576,62.617h12.6v3.142h-9.463L208.576,68.9l-3.142-3.142Zm14.341,3.142V62.617h9.462l3.142-3.137,3.142,3.137-3.142,3.142h-12.6Zm-.869,24.263L197.289,65.263h6.119a2.084,2.084,0,0,0,.55,1.972l3.142,3.142a2.087,2.087,0,0,0,1.476.612h0a2.088,2.088,0,0,0,1.477-.613l2.526-2.529h22.942A2.087,2.087,0,0,0,237,67.235l1.972-1.972h7.837ZM247.879,64.19h0Z" transform="translate(-154.071 -28.786)" fill="#fffdef"/>
    </g>
  </g>
</svg>
